<svg xmlns="http://www.w3.org/2000/svg" viewBox="0 0 200 200" fill="none">
  <!-- Glow & Aura behind head -->
  <circle cx="100" cy="58" r="28" fill="url(#haloGlow)" opacity="0.6"/>
  <circle cx="100" cy="58" r="16" fill="#F2C795" opacity="0.18"/>

  <!-- Guru Head & Topknot -->
  <circle cx="100" cy="60" r="10.5" fill="#F7F2E7"/>
  <circle cx="100" cy="46" r="5.2" fill="#F7F2E7"/>

  <!-- Closed eyes & bindi -->
  <path d="M 94.5 60.5 q 1.8 1.2 3.6 0" stroke="#8E4E22" stroke-width="1.1" stroke-linecap="round" fill="none"/>
  <path d="M 101.9 60.5 q 1.8 1.2 3.6 0" stroke="#8E4E22" stroke-width="1.1" stroke-linecap="round" fill="none"/>
  <circle cx="100" cy="55" r="1.1" fill="#C97B3F"/>

  <!-- Seated Torso (Meditation) -->
  <path d="M 76 82 Q 100 74 124 82 L 132 120 Q 100 128 68 120 Z" fill="#F7F2E7"/>
  <!-- Folded legs (Lotus base) -->
  <path d="M 48 122 Q 100 138 152 122 L 158 144 Q 100 156 42 144 Z" fill="#F7F2E7"/>

  <!-- Arms and mudra hands channeling the thread -->
  <path d="M 78 86 C 68 102, 64 116, 76 118" stroke="#F7F2E7" stroke-width="5" stroke-linecap="round"/>
  <path d="M 122 86 C 132 102, 136 116, 124 118" stroke="#F7F2E7" stroke-width="5" stroke-linecap="round"/>
  <circle cx="76" cy="118" r="3.2" fill="#F2C795"/>
  <circle cx="124" cy="118" r="3.2" fill="#F2C795"/>

  <!-- The Infinite Thread (Lemniscate / Figure-8) -->
  <path d="M 100 106 C 75 80, 36 82, 36 110 C 36 138, 75 142, 100 116 C 125 90, 164 82, 164 110 C 164 138, 125 132, 100 106"
        stroke="url(#threadGrad)" stroke-width="7" stroke-linecap="round" stroke-linejoin="round"/>
  <path d="M 100 106 C 75 80, 36 82, 36 110 C 36 138, 75 142, 100 116 C 125 90, 164 82, 164 110 C 164 138, 125 132, 100 106"
        stroke="#FFF8EE" stroke-width="2.5" stroke-linecap="round" stroke-linejoin="round"/>

  <defs>
    <radialGradient id="haloGlow" cx="50%" cy="50%" r="50%">
      <stop offset="0%" stop-color="#F2C795" stop-opacity="0.8"/>
      <stop offset="100%" stop-color="#C97B3F" stop-opacity="0"/>
    </radialGradient>
    <linearGradient id="threadGrad" x1="0%" y1="0%" x2="100%" y2="100%">
      <stop offset="0%" stop-color="#F2C795"/>
      <stop offset="50%" stop-color="#C97B3F"/>
      <stop offset="100%" stop-color="#F2C795"/>
    </linearGradient>
  </defs>
</svg>
